<svg width="24" height="25" viewBox="0 0 24 25" fill="none" xmlns="http://www.w3.org/2000/svg">
<path d="M21.6751 15.3623L20.1399 14.0498C20.2126 13.6045 20.2501 13.1498 20.2501 12.6951C20.2501 12.2405 20.2126 11.7858 20.1399 11.3405L21.6751 10.028C21.7908 9.92883 21.8737 9.7968 21.9127 9.64943C21.9516 9.50207 21.9447 9.34634 21.893 9.20295L21.8719 9.14202C21.4493 7.96082 20.8165 6.86584 20.004 5.90998L19.9618 5.86077C19.8632 5.74487 19.7318 5.66156 19.585 5.62182C19.4381 5.58207 19.2827 5.58775 19.1391 5.63811L17.2336 6.31545C16.5305 5.73889 15.7454 5.2842 14.8969 4.96545L14.529 2.97327C14.5012 2.82337 14.4285 2.68546 14.3205 2.57787C14.2125 2.47028 14.0743 2.3981 13.9243 2.37092L13.861 2.3592C12.6399 2.13889 11.3555 2.13889 10.1344 2.3592L10.0711 2.37092C9.92114 2.3981 9.78295 2.47028 9.67494 2.57787C9.56694 2.68546 9.49422 2.82337 9.46646 2.97327L9.09615 4.97483C8.25449 5.29366 7.47069 5.74811 6.77584 6.32014L4.8563 5.63811C4.71279 5.58735 4.55722 5.58146 4.41028 5.62123C4.26333 5.66101 4.13197 5.74455 4.03365 5.86077L3.99146 5.90998C3.17992 6.86652 2.54718 7.96132 2.12349 9.14202L2.1024 9.20295C1.99693 9.49592 2.08365 9.82405 2.32037 10.028L3.87427 11.3545C3.80162 11.7951 3.76646 12.2451 3.76646 12.6928C3.76646 13.1428 3.80162 13.5928 3.87427 14.0311L2.32037 15.3576C2.20457 15.4568 2.1217 15.5888 2.08277 15.7362C2.04383 15.8835 2.05068 16.0393 2.1024 16.1826L2.12349 16.2436C2.54771 17.4248 3.17584 18.5147 3.99146 19.4756L4.03365 19.5248C4.13221 19.6407 4.26358 19.724 4.41043 19.7638C4.55729 19.8035 4.71274 19.7978 4.8563 19.7475L6.77584 19.0655C7.47427 19.6397 8.25474 20.0944 9.09615 20.4108L9.46646 22.4123C9.49422 22.5622 9.56694 22.7001 9.67494 22.8077C9.78295 22.9153 9.92114 22.9875 10.0711 23.0147L10.1344 23.0264C11.3667 23.2479 12.6287 23.2479 13.861 23.0264L13.9243 23.0147C14.0743 22.9875 14.2125 22.9153 14.3205 22.8077C14.4285 22.7001 14.5012 22.5622 14.529 22.4123L14.8969 20.4201C15.745 20.1022 16.5346 19.6461 17.2336 19.0701L19.1391 19.7475C19.2826 19.7982 19.4382 19.8041 19.5851 19.7644C19.7321 19.7246 19.8634 19.641 19.9618 19.5248L20.004 19.4756C20.8196 18.5123 21.4477 17.4248 21.8719 16.2436L21.893 16.1826C21.9985 15.8944 21.9118 15.5662 21.6751 15.3623ZM18.4758 11.617C18.5344 11.9709 18.5649 12.3342 18.5649 12.6975C18.5649 13.0608 18.5344 13.424 18.4758 13.778L18.3211 14.7178L20.0719 16.2155C19.8065 16.8269 19.4715 17.4057 19.0735 17.9405L16.8985 17.1694L16.1626 17.774C15.6024 18.2334 14.979 18.5944 14.304 18.8475L13.411 19.1826L12.9915 21.4561C12.3295 21.5311 11.6612 21.5311 10.9993 21.4561L10.5797 19.178L9.6938 18.8381C9.02584 18.585 8.40474 18.224 7.84927 17.767L7.11334 17.16L4.92427 17.9381C4.52584 17.4014 4.19302 16.8225 3.92584 16.2131L5.69537 14.7014L5.54302 13.7639C5.48677 13.4147 5.4563 13.0537 5.4563 12.6975C5.4563 12.3389 5.48443 11.9803 5.54302 11.6311L5.69537 10.6936L3.92584 9.18186C4.19068 8.57014 4.52584 7.99358 4.92427 7.45686L7.11334 8.23498L7.84927 7.62795C8.40474 7.17092 9.02584 6.80998 9.6938 6.55686L10.5821 6.2217L11.0016 3.94358C11.6602 3.86858 12.3329 3.86858 12.9938 3.94358L13.4133 6.21702L14.3063 6.55217C14.979 6.8053 15.6047 7.16623 16.1649 7.62561L16.9008 8.2303L19.0758 7.4592C19.4743 7.99592 19.8071 8.57483 20.0743 9.1842L18.3235 10.6819L18.4758 11.617ZM12.0001 8.33811C9.72193 8.33811 7.87505 10.185 7.87505 12.4631C7.87505 14.7412 9.72193 16.5881 12.0001 16.5881C14.2782 16.5881 16.1251 14.7412 16.1251 12.4631C16.1251 10.185 14.2782 8.33811 12.0001 8.33811ZM13.8563 14.3194C13.6128 14.5635 13.3235 14.7571 13.0049 14.8891C12.6864 15.021 12.3449 15.0886 12.0001 15.0881C11.2993 15.0881 10.6407 14.8139 10.1438 14.3194C9.89964 14.0759 9.70602 13.7866 9.57409 13.468C9.44216 13.1494 9.37452 12.8079 9.37505 12.4631C9.37505 11.7623 9.64927 11.1037 10.1438 10.6069C10.6407 10.11 11.2993 9.83811 12.0001 9.83811C12.7008 9.83811 13.3594 10.11 13.8563 10.6069C14.1005 10.8503 14.2941 11.1397 14.426 11.4582C14.5579 11.7768 14.6256 12.1183 14.6251 12.4631C14.6251 13.1639 14.3508 13.8225 13.8563 14.3194Z" fill="#202423"/>
</svg>
