<svg width="24" height="25" viewBox="0 0 24 25" fill="none" xmlns="http://www.w3.org/2000/svg">
<path d="M12 2.69751C6.477 2.69751 2 7.17451 2 12.6975C2 18.2205 6.477 22.6975 12 22.6975C17.523 22.6975 22 18.2205 22 12.6975C22 7.17451 17.523 2.69751 12 2.69751Z" stroke="#202423" stroke-width="1.5" stroke-linecap="round" stroke-linejoin="round"/>
<path d="M4.271 19.0435C4.271 19.0435 6.5 16.1975 12 16.1975C17.5 16.1975 19.73 19.0435 19.73 19.0435M12 12.6975C12.7956 12.6975 13.5587 12.3814 14.1213 11.8188C14.6839 11.2562 15 10.4932 15 9.69751C15 8.90186 14.6839 8.1388 14.1213 7.57619C13.5587 7.01358 12.7956 6.69751 12 6.69751C11.2043 6.69751 10.4413 7.01358 9.87868 7.57619C9.31607 8.1388 9 8.90186 9 9.69751C9 10.4932 9.31607 11.2562 9.87868 11.8188C10.4413 12.3814 11.2043 12.6975 12 12.6975Z" stroke="#202423" stroke-width="1.5" stroke-linecap="round" stroke-linejoin="round"/>
</svg>
