<svg width="26" height="26" viewBox="0 0 26 26" fill="none" xmlns="http://www.w3.org/2000/svg">
<path d="M22.1115 12.4387C23.5835 12.149 24.65 10.8868 24.65 9.31289V4.23597C24.65 2.43852 23.259 1.04751 21.4615 1.04751H13C11.2026 1.04751 9.81154 2.43852 9.81154 4.23597V9.31289C9.81154 9.37884 9.81341 9.44424 9.81711 9.50905H9.69492H4.53846C2.74102 9.50905 1.35 10.9001 1.35 12.6975V17.7744C1.35 19.3483 2.41648 20.6105 3.88846 20.9002V23.6975V25.2667L4.99808 24.1571L8.19232 20.9629H13C14.7974 20.9629 16.1885 19.5719 16.1885 17.7744V12.6975V12.5014H17.8077L21.0019 15.6956L22.1115 16.8052V15.236V12.4387ZM17.505 4.88597L17.5487 5.04125L17.011 4.97505L17.0361 4.88597H17.505Z" stroke="#202423" stroke-width="1.3"/>
</svg>
