<svg width="25" height="26" viewBox="0 0 25 26" fill="none" xmlns="http://www.w3.org/2000/svg">
<mask id="path-1-outside-1_302_304" maskUnits="userSpaceOnUse" x="2.00024" y="3.69751" width="22" height="20" fill="black">
<rect fill="white" x="2.00024" y="3.69751" width="22" height="20"/>
<path d="M12.703 21.6585C12.8337 21.6585 12.9677 21.6292 13.105 21.5705C13.2424 21.5118 13.3534 21.4402 13.438 21.3555L21.234 13.5585C21.4854 13.3072 21.6794 13.0505 21.816 12.7885C21.952 12.5252 22.02 12.2365 22.02 11.9225C22.02 11.6045 21.952 11.2958 21.816 10.9965C21.6794 10.6965 21.4854 10.4232 21.234 10.1765L17.484 6.42651C17.2367 6.17518 16.9824 5.99084 16.721 5.87351C16.4604 5.75618 16.171 5.69751 15.853 5.69751C15.539 5.69751 15.2474 5.75618 14.978 5.87351C14.7087 5.99084 14.455 6.17484 14.217 6.42551L13.345 7.29751L15.195 9.15251C15.3937 9.34784 15.542 9.56984 15.64 9.81851C15.7374 10.0672 15.786 10.3195 15.786 10.5755C15.786 11.0962 15.6157 11.5268 15.275 11.8675C14.9344 12.2082 14.504 12.3782 13.984 12.3775C13.7274 12.3775 13.477 12.3385 13.233 12.2605C12.989 12.1825 12.7694 12.0458 12.574 11.8505L10.661 9.94451L6.34303 14.2615C6.24237 14.3628 6.1667 14.4778 6.11603 14.6065C6.06537 14.7352 6.04004 14.8652 6.04004 14.9965C6.04004 15.2325 6.1157 15.4268 6.26703 15.5795C6.4177 15.7328 6.61104 15.8095 6.84704 15.8095C6.9777 15.8095 7.1117 15.7802 7.24904 15.7215C7.38637 15.6622 7.49737 15.5902 7.58204 15.5055L10.751 12.3365L11.459 13.0445L8.29504 16.2145C8.1937 16.3152 8.1177 16.4298 8.06704 16.5585C8.01704 16.6878 7.99204 16.8178 7.99204 16.9485C7.99204 17.1718 8.0707 17.3622 8.22804 17.5195C8.38537 17.6768 8.5757 17.7558 8.79904 17.7565C8.9297 17.7565 9.0637 17.7268 9.20104 17.6675C9.33837 17.6082 9.44937 17.5365 9.53404 17.4525L12.934 14.0585L13.642 14.7655L10.247 18.1655C10.1584 18.2502 10.0857 18.3612 10.029 18.4985C9.9717 18.6358 9.94304 18.7698 9.94304 18.9005C9.94304 19.1232 10.022 19.3132 10.18 19.4705C10.3374 19.6292 10.5277 19.7085 10.751 19.7085C10.8817 19.7085 11.0117 19.6832 11.141 19.6325C11.2704 19.5818 11.385 19.5058 11.485 19.4045L14.885 16.0095L15.593 16.7175L12.193 20.1175C12.0924 20.2188 12.0167 20.3405 11.966 20.4825C11.9154 20.6245 11.89 20.7542 11.89 20.8715C11.89 21.1075 11.973 21.2978 12.139 21.4425C12.305 21.5872 12.493 21.6595 12.703 21.6595M12.697 22.6595C12.183 22.6595 11.743 22.4715 11.377 22.0955C11.011 21.7188 10.8504 21.2542 10.895 20.7015C10.3284 20.7082 9.8567 20.5392 9.48004 20.1945C9.10337 19.8492 8.92437 19.3678 8.94304 18.7505C8.3257 18.7572 7.83904 18.5805 7.48304 18.2205C7.12704 17.8605 6.96503 17.3865 6.99703 16.7985C6.44103 16.8052 5.9757 16.6485 5.60103 16.3285C5.22703 16.0098 5.04004 15.5658 5.04004 14.9965C5.04004 14.7398 5.0897 14.4832 5.18904 14.2265C5.28837 13.9692 5.43503 13.7432 5.62903 13.5485L10.661 8.52251L13.243 11.1045C13.3277 11.1932 13.4324 11.2662 13.557 11.3235C13.6817 11.3808 13.822 11.4092 13.978 11.4085C14.192 11.4085 14.381 11.3338 14.545 11.1845C14.709 11.0352 14.7914 10.8405 14.792 10.6005C14.792 10.4445 14.7634 10.3045 14.706 10.1805C14.6487 10.0558 14.576 9.95118 14.488 9.86651L11.048 6.42651C10.8 6.17518 10.5424 5.99084 10.275 5.87351C10.0077 5.75618 9.71503 5.69751 9.39704 5.69751C9.08303 5.69751 8.7977 5.75618 8.54104 5.87351C8.28504 5.99084 8.03137 6.17518 7.78004 6.42651L4.73603 9.47651C4.52137 9.68984 4.34803 9.94484 4.21603 10.2415C4.08403 10.5375 4.01404 10.8432 4.00604 11.1585C3.99937 11.3845 4.0187 11.6015 4.06403 11.8095C4.10937 12.0175 4.1827 12.2135 4.28403 12.3975L3.52604 13.1555C3.35804 12.8875 3.2267 12.5788 3.13204 12.2295C3.03737 11.8802 2.9937 11.5235 3.00103 11.1595C3.00903 10.7048 3.10003 10.2698 3.27403 9.85451C3.44803 9.43918 3.69737 9.06884 4.02203 8.74351L7.04704 5.71851C7.3957 5.37318 7.7647 5.11651 8.15404 4.94851C8.54337 4.78118 8.96437 4.69751 9.41704 4.69751C9.8697 4.69751 10.287 4.78151 10.669 4.94951C11.0517 5.11684 11.4157 5.37318 11.761 5.71851L12.631 6.58951L13.503 5.71851C13.8517 5.37318 14.2174 5.11651 14.6 4.94851C14.9827 4.78118 15.4004 4.69751 15.853 4.69751C16.3057 4.69751 16.7267 4.78151 17.116 4.94951C17.5047 5.11684 17.8714 5.37318 18.216 5.71851L21.942 9.44351C22.2867 9.78818 22.5527 10.1752 22.74 10.6045C22.9274 11.0338 23.0207 11.4748 23.02 11.9275C23.02 12.3808 22.9267 12.7985 22.74 13.1805C22.5534 13.5625 22.2874 13.9265 21.942 14.2725L14.145 22.0625C13.9377 22.2705 13.7117 22.4218 13.467 22.5165C13.223 22.6112 12.9664 22.6585 12.697 22.6585"/>
</mask>
<path d="M12.703 21.6585C12.8337 21.6585 12.9677 21.6292 13.105 21.5705C13.2424 21.5118 13.3534 21.4402 13.438 21.3555L21.234 13.5585C21.4854 13.3072 21.6794 13.0505 21.816 12.7885C21.952 12.5252 22.02 12.2365 22.02 11.9225C22.02 11.6045 21.952 11.2958 21.816 10.9965C21.6794 10.6965 21.4854 10.4232 21.234 10.1765L17.484 6.42651C17.2367 6.17518 16.9824 5.99084 16.721 5.87351C16.4604 5.75618 16.171 5.69751 15.853 5.69751C15.539 5.69751 15.2474 5.75618 14.978 5.87351C14.7087 5.99084 14.455 6.17484 14.217 6.42551L13.345 7.29751L15.195 9.15251C15.3937 9.34784 15.542 9.56984 15.64 9.81851C15.7374 10.0672 15.786 10.3195 15.786 10.5755C15.786 11.0962 15.6157 11.5268 15.275 11.8675C14.9344 12.2082 14.504 12.3782 13.984 12.3775C13.7274 12.3775 13.477 12.3385 13.233 12.2605C12.989 12.1825 12.7694 12.0458 12.574 11.8505L10.661 9.94451L6.34303 14.2615C6.24237 14.3628 6.1667 14.4778 6.11603 14.6065C6.06537 14.7352 6.04004 14.8652 6.04004 14.9965C6.04004 15.2325 6.1157 15.4268 6.26703 15.5795C6.4177 15.7328 6.61104 15.8095 6.84704 15.8095C6.9777 15.8095 7.1117 15.7802 7.24904 15.7215C7.38637 15.6622 7.49737 15.5902 7.58204 15.5055L10.751 12.3365L11.459 13.0445L8.29504 16.2145C8.1937 16.3152 8.1177 16.4298 8.06704 16.5585C8.01704 16.6878 7.99204 16.8178 7.99204 16.9485C7.99204 17.1718 8.0707 17.3622 8.22804 17.5195C8.38537 17.6768 8.5757 17.7558 8.79904 17.7565C8.9297 17.7565 9.0637 17.7268 9.20104 17.6675C9.33837 17.6082 9.44937 17.5365 9.53404 17.4525L12.934 14.0585L13.642 14.7655L10.247 18.1655C10.1584 18.2502 10.0857 18.3612 10.029 18.4985C9.9717 18.6358 9.94304 18.7698 9.94304 18.9005C9.94304 19.1232 10.022 19.3132 10.18 19.4705C10.3374 19.6292 10.5277 19.7085 10.751 19.7085C10.8817 19.7085 11.0117 19.6832 11.141 19.6325C11.2704 19.5818 11.385 19.5058 11.485 19.4045L14.885 16.0095L15.593 16.7175L12.193 20.1175C12.0924 20.2188 12.0167 20.3405 11.966 20.4825C11.9154 20.6245 11.89 20.7542 11.89 20.8715C11.89 21.1075 11.973 21.2978 12.139 21.4425C12.305 21.5872 12.493 21.6595 12.703 21.6595M12.697 22.6595C12.183 22.6595 11.743 22.4715 11.377 22.0955C11.011 21.7188 10.8504 21.2542 10.895 20.7015C10.3284 20.7082 9.8567 20.5392 9.48004 20.1945C9.10337 19.8492 8.92437 19.3678 8.94304 18.7505C8.3257 18.7572 7.83904 18.5805 7.48304 18.2205C7.12704 17.8605 6.96503 17.3865 6.99703 16.7985C6.44103 16.8052 5.9757 16.6485 5.60103 16.3285C5.22703 16.0098 5.04004 15.5658 5.04004 14.9965C5.04004 14.7398 5.0897 14.4832 5.18904 14.2265C5.28837 13.9692 5.43503 13.7432 5.62903 13.5485L10.661 8.52251L13.243 11.1045C13.3277 11.1932 13.4324 11.2662 13.557 11.3235C13.6817 11.3808 13.822 11.4092 13.978 11.4085C14.192 11.4085 14.381 11.3338 14.545 11.1845C14.709 11.0352 14.7914 10.8405 14.792 10.6005C14.792 10.4445 14.7634 10.3045 14.706 10.1805C14.6487 10.0558 14.576 9.95118 14.488 9.86651L11.048 6.42651C10.8 6.17518 10.5424 5.99084 10.275 5.87351C10.0077 5.75618 9.71503 5.69751 9.39704 5.69751C9.08303 5.69751 8.7977 5.75618 8.54104 5.87351C8.28504 5.99084 8.03137 6.17518 7.78004 6.42651L4.73603 9.47651C4.52137 9.68984 4.34803 9.94484 4.21603 10.2415C4.08403 10.5375 4.01404 10.8432 4.00604 11.1585C3.99937 11.3845 4.0187 11.6015 4.06403 11.8095C4.10937 12.0175 4.1827 12.2135 4.28403 12.3975L3.52604 13.1555C3.35804 12.8875 3.2267 12.5788 3.13204 12.2295C3.03737 11.8802 2.9937 11.5235 3.00103 11.1595C3.00903 10.7048 3.10003 10.2698 3.27403 9.85451C3.44803 9.43918 3.69737 9.06884 4.02203 8.74351L7.04704 5.71851C7.3957 5.37318 7.7647 5.11651 8.15404 4.94851C8.54337 4.78118 8.96437 4.69751 9.41704 4.69751C9.8697 4.69751 10.287 4.78151 10.669 4.94951C11.0517 5.11684 11.4157 5.37318 11.761 5.71851L12.631 6.58951L13.503 5.71851C13.8517 5.37318 14.2174 5.11651 14.6 4.94851C14.9827 4.78118 15.4004 4.69751 15.853 4.69751C16.3057 4.69751 16.7267 4.78151 17.116 4.94951C17.5047 5.11684 17.8714 5.37318 18.216 5.71851L21.942 9.44351C22.2867 9.78818 22.5527 10.1752 22.74 10.6045C22.9274 11.0338 23.0207 11.4748 23.02 11.9275C23.02 12.3808 22.9267 12.7985 22.74 13.1805C22.5534 13.5625 22.2874 13.9265 21.942 14.2725L14.145 22.0625C13.9377 22.2705 13.7117 22.4218 13.467 22.5165C13.223 22.6112 12.9664 22.6585 12.697 22.6585" fill="#202423"/>
<path d="M13.438 21.3555L13.6502 21.5676L13.6502 21.5676L13.438 21.3555ZM21.234 13.5585L21.0219 13.3464L21.0219 13.3464L21.234 13.5585ZM21.816 12.7885L22.082 12.9273L22.0826 12.9262L21.816 12.7885ZM21.816 10.9965L22.0892 10.8724L22.089 10.8721L21.816 10.9965ZM21.234 10.1765L21.0219 10.3887L21.0239 10.3906L21.234 10.1765ZM17.484 6.42651L17.2702 6.63694L17.2719 6.63864L17.484 6.42651ZM16.721 5.87351L16.5979 6.14707L16.5982 6.14719L16.721 5.87351ZM14.217 6.42551L14.4292 6.63771L14.4346 6.63207L14.217 6.42551ZM13.345 7.29751L13.1329 7.08538L12.9211 7.29722L13.1326 7.50936L13.345 7.29751ZM15.195 9.15251L14.9826 9.36437L14.9847 9.36643L15.195 9.15251ZM15.64 9.81851L15.9194 9.70916L15.9191 9.70851L15.64 9.81851ZM13.984 12.3775L13.9844 12.0775H13.984V12.3775ZM12.574 11.8505L12.7862 11.6384L12.7858 11.638L12.574 11.8505ZM10.661 9.94451L10.8728 9.73199L10.6607 9.52066L10.4489 9.73235L10.661 9.94451ZM6.34303 14.2615L6.13093 14.0494L6.1302 14.0501L6.34303 14.2615ZM6.04004 14.9965H6.34003H6.04004ZM6.26703 15.5795L6.48102 15.3692L6.4801 15.3683L6.26703 15.5795ZM7.24904 15.7215L7.36689 15.9974L7.36802 15.9969L7.24904 15.7215ZM7.58204 15.5055L7.3699 15.2934L7.58204 15.5055ZM10.751 12.3365L10.9632 12.1244L10.751 11.9122L10.5389 12.1244L10.751 12.3365ZM11.459 13.0445L11.6714 13.2564L11.8831 13.0443L11.6712 12.8324L11.459 13.0445ZM8.29504 16.2145L8.50647 16.4273L8.50737 16.4264L8.29504 16.2145ZM8.06704 16.5585L7.78789 16.4486L7.78722 16.4503L8.06704 16.5585ZM8.79904 17.7565L8.79814 18.0565H8.79904V17.7565ZM9.53404 17.4525L9.74533 17.6655L9.74598 17.6648L9.53404 17.4525ZM12.934 14.0585L13.146 13.8462L12.9341 13.6346L12.7221 13.8462L12.934 14.0585ZM13.642 14.7655L13.8543 14.9775L14.0663 14.7652L13.854 14.5532L13.642 14.7655ZM10.247 18.1655L10.4543 18.3825L10.4593 18.3775L10.247 18.1655ZM10.029 18.4985L10.3059 18.6141L10.3064 18.6129L10.029 18.4985ZM10.18 19.4705L10.3931 19.2593L10.3917 19.2579L10.18 19.4705ZM11.485 19.4045L11.2731 19.1922L11.2715 19.1938L11.485 19.4045ZM14.885 16.0095L15.0972 15.7974L14.8852 15.5854L14.6731 15.7972L14.885 16.0095ZM15.593 16.7175L15.8052 16.9296L16.0173 16.7175L15.8052 16.5054L15.593 16.7175ZM12.193 20.1175L11.9809 19.9054L11.9802 19.9061L12.193 20.1175ZM11.377 22.0955L11.1619 22.3046L11.1621 22.3048L11.377 22.0955ZM10.895 20.7015L11.1941 20.7257L11.2206 20.3977L10.8915 20.4015L10.895 20.7015ZM9.48004 20.1945L9.2773 20.4156L9.27751 20.4158L9.48004 20.1945ZM8.94304 18.7505L9.2429 18.7596L9.25235 18.4472L8.9398 18.4505L8.94304 18.7505ZM6.99703 16.7985L7.29659 16.8148L7.31401 16.4947L6.99344 16.4985L6.99703 16.7985ZM5.60103 16.3285L5.79587 16.1004L5.7956 16.1002L5.60103 16.3285ZM5.18904 14.2265L5.46881 14.3348L5.46891 14.3345L5.18904 14.2265ZM5.62903 13.5485L5.41703 13.3363L5.41654 13.3367L5.62903 13.5485ZM10.661 8.52251L10.8732 8.31038L10.6612 8.09837L10.449 8.31025L10.661 8.52251ZM13.243 11.1045L13.4601 10.8973L13.4552 10.8924L13.243 11.1045ZM13.978 11.4085V11.1085L13.9768 11.1085L13.978 11.4085ZM14.792 10.6005L15.092 10.6013V10.6005H14.792ZM14.706 10.1805L14.4335 10.3059L14.4337 10.3064L14.706 10.1805ZM14.488 9.86651L14.2759 10.0787L14.28 10.0827L14.488 9.86651ZM11.048 6.42651L10.8345 6.63723L10.8359 6.63864L11.048 6.42651ZM8.54104 5.87351L8.41631 5.60067L8.41604 5.60079L8.54104 5.87351ZM7.78004 6.42651L7.5679 6.21438L7.56769 6.21459L7.78004 6.42651ZM4.73603 9.47651L4.94751 9.6893L4.94838 9.68843L4.73603 9.47651ZM4.21603 10.2415L4.49003 10.3637L4.49013 10.3635L4.21603 10.2415ZM4.00604 11.1585L4.30591 11.1674L4.30594 11.1661L4.00604 11.1585ZM4.28403 12.3975L4.49617 12.6096L4.65556 12.4502L4.54682 12.2528L4.28403 12.3975ZM3.52604 13.1555L3.27185 13.3149L3.47187 13.6339L3.73817 13.3676L3.52604 13.1555ZM3.00103 11.1595L3.30098 11.1656L3.30099 11.1648L3.00103 11.1595ZM4.02203 8.74351L3.8099 8.53138L3.80969 8.5316L4.02203 8.74351ZM7.04704 5.71851L6.83592 5.50536L6.8349 5.50638L7.04704 5.71851ZM8.15404 4.94851L8.03557 4.67289L8.03518 4.67306L8.15404 4.94851ZM10.669 4.94951L10.5483 5.22413L10.5488 5.22438L10.669 4.94951ZM11.761 5.71851L11.9733 5.5065L11.9732 5.50638L11.761 5.71851ZM12.631 6.58951L12.4188 6.80152L12.6308 7.01377L12.843 6.80176L12.631 6.58951ZM13.503 5.71851L13.2919 5.50536L13.291 5.50626L13.503 5.71851ZM14.6 4.94851L14.4798 4.67364L14.4794 4.67382L14.6 4.94851ZM17.116 4.94951L16.9972 5.22496L16.9974 5.22506L17.116 4.94951ZM18.216 5.71851L18.0037 5.93044L18.0039 5.93067L18.216 5.71851ZM21.942 9.44351L22.1542 9.23138L22.1541 9.23135L21.942 9.44351ZM23.02 11.9275L22.72 11.9271V11.9275H23.02ZM21.942 14.2725L22.1541 14.4847L22.1544 14.4844L21.942 14.2725ZM14.145 22.0625L13.933 21.8503L13.9326 21.8507L14.145 22.0625ZM13.467 22.5165L13.3588 22.2367L13.3585 22.2368L13.467 22.5165ZM12.703 21.9585C12.8796 21.9585 13.0536 21.9187 13.2229 21.8464L12.9872 21.2946C12.8818 21.3396 12.7878 21.3585 12.703 21.3585V21.9585ZM13.2229 21.8464C13.387 21.7763 13.5326 21.6852 13.6502 21.5676L13.2259 21.1434C13.1741 21.1952 13.0977 21.2474 12.9872 21.2946L13.2229 21.8464ZM13.6502 21.5676L21.4462 13.7706L21.0219 13.3464L13.2259 21.1434L13.6502 21.5676ZM21.4462 13.7706C21.7149 13.502 21.9287 13.2212 22.082 12.9273L21.55 12.6498C21.43 12.8799 21.2559 13.1124 21.0219 13.3464L21.4462 13.7706ZM22.0826 12.9262C22.2419 12.6177 22.32 12.2815 22.32 11.9225H21.72C21.72 12.1915 21.6622 12.4326 21.5495 12.6508L22.0826 12.9262ZM22.32 11.9225C22.32 11.5602 22.2423 11.2094 22.0892 10.8724L21.5429 11.1206C21.6618 11.3823 21.72 11.6488 21.72 11.9225H22.32ZM22.089 10.8721C21.9361 10.5364 21.72 10.2331 21.4442 9.9624L21.0239 10.3906C21.2508 10.6133 21.4226 10.8566 21.543 11.1209L22.089 10.8721ZM21.4462 9.96438L17.6962 6.21438L17.2719 6.63864L21.0219 10.3886L21.4462 9.96438ZM17.6979 6.21609C17.4302 5.94414 17.1461 5.73549 16.8439 5.59983L16.5982 6.14719C16.8187 6.24619 17.0432 6.40622 17.2702 6.63693L17.6979 6.21609ZM16.8442 5.59995C16.5406 5.46332 16.2087 5.39751 15.853 5.39751V5.99751C16.1334 5.99751 16.3801 6.04903 16.5979 6.14707L16.8442 5.59995ZM15.853 5.39751C15.5007 5.39751 15.1679 5.46356 14.8582 5.59848L15.0979 6.14854C15.3268 6.04879 15.5774 5.99751 15.853 5.99751V5.39751ZM14.8582 5.59848C14.5461 5.73443 14.2603 5.94421 13.9995 6.21895L14.4346 6.63207C14.6497 6.40548 14.8713 6.24726 15.0979 6.14854L14.8582 5.59848ZM14.0049 6.21338L13.1329 7.08538L13.5572 7.50964L14.4292 6.63764L14.0049 6.21338ZM13.1326 7.50936L14.9826 9.36436L15.4075 8.94066L13.5575 7.08566L13.1326 7.50936ZM14.9847 9.36643C15.1547 9.53359 15.279 9.72057 15.3609 9.92851L15.9191 9.70851C15.8051 9.41912 15.6327 9.16209 15.4054 8.93859L14.9847 9.36643ZM15.3607 9.92786C15.445 10.1432 15.486 10.3585 15.486 10.5755H16.086C16.086 10.2805 16.0298 9.99115 15.9194 9.70916L15.3607 9.92786ZM15.486 10.5755C15.486 11.0237 15.3425 11.3758 15.0629 11.6554L15.4872 12.0796C15.8889 11.6779 16.086 11.1686 16.086 10.5755H15.486ZM15.0629 11.6554C14.7833 11.9349 14.4317 12.0781 13.9844 12.0775L13.9837 12.6775C14.5764 12.6783 15.0854 12.4814 15.4872 12.0796L15.0629 11.6554ZM13.984 12.0775C13.7583 12.0775 13.5388 12.0433 13.3244 11.9748L13.1417 12.5463C13.4153 12.6337 13.6964 12.6775 13.984 12.6775V12.0775ZM13.3244 11.9748C13.1295 11.9124 12.9504 11.8026 12.7862 11.6384L12.3619 12.0626C12.5883 12.2891 12.8486 12.4526 13.1417 12.5463L13.3244 11.9748ZM12.7858 11.638L10.8728 9.73199L10.4493 10.157L12.3623 12.063L12.7858 11.638ZM10.4489 9.73235L6.13093 14.0494L6.55514 14.4737L10.8731 10.1567L10.4489 9.73235ZM6.1302 14.0501C6.00173 14.1794 5.90302 14.3287 5.8369 14.4966L6.39517 14.7164C6.43038 14.627 6.48301 14.5463 6.55587 14.4729L6.1302 14.0501ZM5.8369 14.4966C5.77318 14.6584 5.74004 14.8256 5.74004 14.9965H6.34003C6.34003 14.9048 6.35755 14.812 6.39517 14.7164L5.8369 14.4966ZM5.74004 14.9965C5.74004 15.3031 5.84124 15.5761 6.05397 15.7907L6.4801 15.3683C6.39017 15.2776 6.34003 15.1619 6.34003 14.9965H5.74004ZM6.05305 15.7898C6.26593 16.0064 6.53924 16.1095 6.84704 16.1095V15.5095C6.68283 15.5095 6.56948 15.4593 6.48102 15.3692L6.05305 15.7898ZM6.84704 16.1095C7.0236 16.1095 7.1976 16.0697 7.36689 15.9974L7.13118 15.4456C7.02581 15.4906 6.93181 15.5095 6.84704 15.5095V16.1095ZM7.36802 15.9969C7.53176 15.9262 7.67696 15.8348 7.79417 15.7176L7.3699 15.2934C7.31778 15.3455 7.24098 15.3982 7.13005 15.4461L7.36802 15.9969ZM7.79417 15.7176L10.9632 12.5486L10.5389 12.1244L7.3699 15.2934L7.79417 15.7176ZM10.5389 12.5486L11.2469 13.2566L11.6712 12.8324L10.9632 12.1244L10.5389 12.5486ZM11.2467 12.8326L8.0827 16.0026L8.50737 16.4264L11.6714 13.2564L11.2467 12.8326ZM8.0836 16.0017C7.95382 16.1306 7.85428 16.28 7.7879 16.4486L8.34617 16.6684C8.38113 16.5797 8.43358 16.4997 8.50647 16.4273L8.0836 16.0017ZM7.78722 16.4503C7.7247 16.612 7.69204 16.7786 7.69204 16.9485H8.29204C8.29204 16.8571 8.30937 16.7636 8.34685 16.6667L7.78722 16.4503ZM7.69204 16.9485C7.69204 17.2511 7.80207 17.5178 8.0159 17.7316L8.44017 17.3074C8.33933 17.2065 8.29204 17.0926 8.29204 16.9485H7.69204ZM8.0159 17.7316C8.22951 17.9453 8.49588 18.0556 8.79814 18.0565L8.79993 17.4565C8.65552 17.4561 8.54122 17.4084 8.44017 17.3074L8.0159 17.7316ZM8.79904 18.0565C8.97614 18.0565 9.15053 18.0161 9.32002 17.9429L9.08205 17.3921C8.97687 17.4376 8.88326 17.4565 8.79904 17.4565V18.0565ZM9.32002 17.9429C9.48333 17.8723 9.62825 17.7816 9.74533 17.6655L9.32274 17.2395C9.27049 17.2914 9.19341 17.344 9.08205 17.3921L9.32002 17.9429ZM9.74598 17.6648L13.146 14.2708L12.7221 13.8462L9.32209 17.2402L9.74598 17.6648ZM12.7221 14.2708L13.4301 14.9778L13.854 14.5532L13.146 13.8462L12.7221 14.2708ZM13.4297 14.5535L10.0347 17.9535L10.4593 18.3775L13.8543 14.9775L13.4297 14.5535ZM10.0399 17.9485C9.9152 18.0676 9.82104 18.2161 9.75172 18.3841L10.3064 18.6129C10.3504 18.5063 10.4015 18.4328 10.4542 18.3825L10.0399 17.9485ZM9.75219 18.3829C9.68168 18.5518 9.64304 18.725 9.64304 18.9005H10.243C10.243 18.8147 10.2617 18.7199 10.3059 18.6141L9.75219 18.3829ZM9.64304 18.9005C9.64304 19.2031 9.7539 19.4695 9.96835 19.6831L10.3917 19.2579C10.2902 19.1568 10.243 19.0433 10.243 18.9005H9.64304ZM9.96701 19.6817C10.1806 19.8972 10.4477 20.0085 10.751 20.0085V19.4085C10.6078 19.4085 10.4941 19.3612 10.3931 19.2593L9.96701 19.6817ZM10.751 20.0085C10.9215 20.0085 11.0885 19.9753 11.2505 19.9118L11.0316 19.3532C10.9349 19.3911 10.8419 19.4085 10.751 19.4085V20.0085ZM11.2505 19.9118C11.4199 19.8455 11.5698 19.7457 11.6986 19.6152L11.2715 19.1938C11.2003 19.266 11.1208 19.3182 11.0316 19.3532L11.2505 19.9118ZM11.697 19.6168L15.097 16.2218L14.6731 15.7972L11.2731 19.1922L11.697 19.6168ZM14.6729 16.2216L15.3809 16.9296L15.8052 16.5054L15.0972 15.7974L14.6729 16.2216ZM15.3809 16.5054L11.9809 19.9054L12.4052 20.3296L15.8052 16.9296L15.3809 16.5054ZM11.9802 19.9061C11.8467 20.0404 11.7481 20.2005 11.6835 20.3817L12.2486 20.5833C12.2853 20.4805 12.338 20.3972 12.4059 20.3289L11.9802 19.9061ZM11.6835 20.3817C11.6244 20.5473 11.59 20.7116 11.59 20.8715H12.19C12.19 20.7967 12.2063 20.7017 12.2486 20.5833L11.6835 20.3817ZM11.59 20.8715C11.59 21.1872 11.7054 21.4626 11.9419 21.6687L12.3361 21.2163C12.2406 21.1331 12.19 21.0278 12.19 20.8715H11.59ZM11.9419 21.6687C12.1597 21.8584 12.4168 21.9595 12.703 21.9595V21.3595C12.5692 21.3595 12.4504 21.3159 12.3361 21.2163L11.9419 21.6687ZM12.697 22.3595C12.2659 22.3595 11.9029 22.2056 11.592 21.8863L11.1621 22.3048C11.5832 22.7374 12.1002 22.9595 12.697 22.9595V22.3595ZM11.5922 21.8864C11.2902 21.5756 11.1559 21.1976 11.1941 20.7257L10.596 20.6773C10.5448 21.3108 10.7319 21.8621 11.1619 22.3046L11.5922 21.8864ZM10.8915 20.4015C10.3919 20.4074 9.99665 20.2606 9.68256 19.9732L9.27751 20.4158C9.71675 20.8178 10.2648 21.0089 10.8986 21.0015L10.8915 20.4015ZM9.68277 19.9734C9.38377 19.6992 9.22627 19.3096 9.2429 18.7596L8.64317 18.7414C8.62247 19.4261 8.82297 19.9991 9.2773 20.4156L9.68277 19.9734ZM8.9398 18.4505C8.38464 18.4565 7.98305 18.2995 7.69635 18.0096L7.26972 18.4315C7.69502 18.8615 8.26676 19.0578 8.94627 19.0505L8.9398 18.4505ZM7.69635 18.0096C7.40975 17.7198 7.26837 17.3334 7.29659 16.8148L6.69748 16.7822C6.6617 17.4396 6.84432 18.0013 7.26972 18.4315L7.69635 18.0096ZM6.99344 16.4985C6.50012 16.5044 6.10813 16.3671 5.79587 16.1004L5.4062 16.5566C5.84327 16.9299 6.38195 17.1059 7.00063 17.0985L6.99344 16.4985ZM5.7956 16.1002C5.49946 15.8478 5.34003 15.4935 5.34003 14.9965H4.74004C4.74004 15.6382 4.95461 16.1719 5.40647 16.5569L5.7956 16.1002ZM5.34003 14.9965C5.34003 14.7795 5.38187 14.5594 5.46881 14.3348L4.90926 14.1182C4.79753 14.4069 4.74004 14.7002 4.74004 14.9965H5.34003ZM5.46891 14.3345C5.55329 14.1159 5.67706 13.9253 5.84153 13.7603L5.41654 13.3367C5.19301 13.561 5.02345 13.8224 4.90916 14.1185L5.46891 14.3345ZM5.84104 13.7608L10.873 8.73477L10.449 8.31025L5.41703 13.3363L5.84104 13.7608ZM10.4489 8.73464L13.0309 11.3166L13.4552 10.8924L10.8732 8.31038L10.4489 8.73464ZM13.0261 11.3117C13.1398 11.4308 13.2767 11.5248 13.4317 11.5961L13.6824 11.051C13.588 11.0076 13.5156 10.9555 13.46 10.8973L13.0261 11.3117ZM13.4317 11.5961C13.6012 11.674 13.7856 11.7093 13.9793 11.7085L13.9768 11.1085C13.8585 11.109 13.7622 11.0877 13.6824 11.051L13.4317 11.5961ZM13.978 11.7085C14.2697 11.7085 14.53 11.6039 14.747 11.4063L14.3431 10.9627C14.2321 11.0637 14.1144 11.1085 13.978 11.1085V11.7085ZM14.747 11.4063C14.9787 11.1953 15.0912 10.9178 15.092 10.6013L14.492 10.5997C14.4916 10.7633 14.4393 10.875 14.3431 10.9627L14.747 11.4063ZM15.092 10.6005C15.092 10.4072 15.0563 10.2233 14.9783 10.0546L14.4337 10.3064C14.4704 10.3857 14.492 10.4818 14.492 10.6005H15.092ZM14.9786 10.0552C14.9075 9.90064 14.8142 9.76399 14.696 9.65032L14.28 10.0827C14.3379 10.1384 14.3899 10.211 14.4335 10.3059L14.9786 10.0552ZM14.7002 9.65438L11.2602 6.21438L10.8359 6.63864L14.2759 10.0786L14.7002 9.65438ZM11.2616 6.2158C10.9924 5.94296 10.7041 5.73422 10.3956 5.5988L10.1545 6.14822C10.3806 6.24746 10.6077 6.4074 10.8345 6.63722L11.2616 6.2158ZM10.3956 5.5988C10.087 5.46335 9.7528 5.39751 9.39704 5.39751V5.99751C9.67727 5.99751 9.92842 6.049 10.1545 6.14822L10.3956 5.5988ZM9.39704 5.39751C9.04487 5.39751 8.71633 5.46352 8.41631 5.60067L8.66576 6.14635C8.87908 6.04884 9.1212 5.99751 9.39704 5.99751V5.39751ZM8.41604 5.60079C8.12038 5.7363 7.83812 5.94416 7.5679 6.21438L7.99217 6.63864C8.22462 6.40619 8.44969 6.24538 8.66603 6.14623L8.41604 5.60079ZM7.56769 6.21459L4.52369 9.26459L4.94838 9.68843L7.99238 6.63843L7.56769 6.21459ZM4.52456 9.26372C4.28172 9.50505 4.08791 9.79149 3.94194 10.1196L4.49013 10.3635C4.60816 10.0982 4.76101 9.87463 4.9475 9.6893L4.52456 9.26372ZM3.94204 10.1193C3.79439 10.4504 3.71516 10.7949 3.70613 11.1509L4.30594 11.1661C4.31291 10.8914 4.37368 10.6246 4.49003 10.3637L3.94204 10.1193ZM3.70617 11.1497C3.69882 11.3986 3.72007 11.6401 3.77092 11.8734L4.35715 11.7456C4.31734 11.5629 4.29991 11.3704 4.3059 11.1674L3.70617 11.1497ZM3.77092 11.8734C3.82233 12.1093 3.90577 12.3325 4.02125 12.5422L4.54682 12.2528C4.45963 12.0945 4.39641 11.9257 4.35715 11.7456L3.77092 11.8734ZM4.0719 12.1854L3.3139 12.9434L3.73817 13.3676L4.49617 12.6096L4.0719 12.1854ZM3.78022 12.9962C3.63001 12.7565 3.50961 12.4759 3.42159 12.151L2.84248 12.308C2.94379 12.6818 3.08606 13.0185 3.27185 13.3149L3.78022 12.9962ZM3.42159 12.151C3.33443 11.8294 3.29421 11.5012 3.30097 11.1656L2.7011 11.1535C2.69319 11.5458 2.74031 11.9309 2.84248 12.308L3.42159 12.151ZM3.30099 11.1648C3.30833 10.7478 3.39158 10.3503 3.55073 9.97043L2.99734 9.73859C2.80849 10.1893 2.70974 10.6619 2.70108 11.1542L3.30099 11.1648ZM3.55073 9.97043C3.70939 9.59171 3.9366 9.25382 4.23438 8.95542L3.80969 8.5316C3.45813 8.88387 3.18668 9.28664 2.99734 9.73859L3.55073 9.97043ZM4.23417 8.95564L7.25917 5.93064L6.8349 5.50638L3.8099 8.53138L4.23417 8.95564ZM7.25815 5.93166C7.58434 5.60858 7.92289 5.37499 8.27289 5.22396L8.03518 4.67306C7.60652 4.85803 7.20706 5.13777 6.83592 5.50536L7.25815 5.93166ZM8.2725 5.22413C8.6219 5.07396 9.00228 4.99751 9.41704 4.99751V4.39751C8.92645 4.39751 8.46483 4.4884 8.03557 4.67289L8.2725 5.22413ZM9.41704 4.99751C9.83168 4.99751 10.2075 5.07424 10.5483 5.22413L10.7898 4.67489C10.3666 4.48878 9.90772 4.39751 9.41704 4.39751V4.99751ZM10.5488 5.22438C10.8919 5.37441 11.2256 5.60737 11.5489 5.93064L11.9732 5.50638C11.6058 5.13899 11.2115 4.85928 10.7892 4.67464L10.5488 5.22438ZM11.5488 5.93052L12.4188 6.80152L12.8433 6.3775L11.9733 5.5065L11.5488 5.93052ZM12.843 6.80176L13.715 5.93076L13.291 5.50626L12.419 6.37726L12.843 6.80176ZM13.7141 5.93166C14.0411 5.60779 14.377 5.37408 14.7206 5.2232L14.4794 4.67382C14.0578 4.85894 13.6623 5.13856 13.2919 5.50536L13.7141 5.93166ZM14.7202 5.22338C15.0619 5.07397 15.4382 4.99751 15.853 4.99751V4.39751C15.3625 4.39751 14.9035 4.48838 14.4798 4.67364L14.7202 5.22338ZM15.853 4.99751C16.2676 4.99751 16.6479 5.07423 16.9972 5.22496L17.2349 4.67406C16.8055 4.48879 16.3438 4.39751 15.853 4.39751V4.99751ZM16.9974 5.22506C17.3461 5.3752 17.6819 5.60799 18.0037 5.93044L18.4284 5.50658C18.0609 5.13836 17.6633 4.85848 17.2347 4.67396L16.9974 5.22506ZM18.0039 5.93067L21.7299 9.65567L22.1541 9.23135L18.4281 5.50635L18.0039 5.93067ZM21.7299 9.65564C22.0491 9.97488 22.2933 10.3309 22.4651 10.7245L23.015 10.4845C22.8121 10.0194 22.5243 9.60147 22.1542 9.23138L21.7299 9.65564ZM22.4651 10.7245C22.6364 11.1172 22.7206 11.5173 22.72 11.9271L23.32 11.928C23.3208 11.4324 23.2183 10.9505 23.015 10.4845L22.4651 10.7245ZM22.72 11.9275C22.72 12.3383 22.6358 12.7105 22.4705 13.0488L23.0096 13.3122C23.2176 12.8865 23.32 12.4234 23.32 11.9275H22.72ZM22.4705 13.0488C22.3003 13.397 22.0551 13.7345 21.7297 14.0606L22.1544 14.4844C22.5196 14.1185 22.8064 13.728 23.0096 13.3122L22.4705 13.0488ZM21.73 14.0603L13.933 21.8503L14.3571 22.2747L22.1541 14.4847L21.73 14.0603ZM13.9326 21.8507C13.7513 22.0326 13.5599 22.1589 13.3588 22.2367L13.5753 22.7963C13.8635 22.6848 14.1241 22.5084 14.3575 22.2743L13.9326 21.8507ZM13.3585 22.2368C13.1501 22.3177 12.9304 22.3585 12.697 22.3585V22.9585C13.0024 22.9585 13.2959 22.9047 13.5755 22.7962L13.3585 22.2368Z" fill="#202423" mask="url(#path-1-outside-1_302_304)"/>
</svg>
