<svg width="24" height="25" viewBox="0 0 24 25" fill="none" xmlns="http://www.w3.org/2000/svg">
<path d="M15.8 8.69751L17 9.89751L10.2 16.6975L9 15.4975L15.8 8.69751ZM5 4.69751H21C22.11 4.69751 23 5.58751 23 6.69751V10.6975C22.4696 10.6975 21.9609 10.9082 21.5858 11.2833C21.2107 11.6584 21 12.1671 21 12.6975C21 13.2279 21.2107 13.7367 21.5858 14.1117C21.9609 14.4868 22.4696 14.6975 23 14.6975V18.6975C23 19.8075 22.11 20.6975 21 20.6975H5C4.46957 20.6975 3.96086 20.4868 3.58579 20.1117C3.21071 19.7367 3 19.2279 3 18.6975V14.6975C4.11 14.6975 5 13.8075 5 12.6975C5 12.1671 4.78929 11.6584 4.41421 11.2833C4.03914 10.9082 3.53043 10.6975 3 10.6975V6.69751C3 6.16708 3.21071 5.65837 3.58579 5.2833C3.96086 4.90822 4.46957 4.69751 5 4.69751ZM5 6.69751V9.23751C5.60768 9.58791 6.11236 10.0922 6.46326 10.6996C6.81415 11.307 6.9989 11.996 6.9989 12.6975C6.9989 13.399 6.81415 14.0881 6.46326 14.6955C6.11236 15.3028 5.60768 15.8071 5 16.1575V18.6975H21V16.1575C20.3923 15.8071 19.8876 15.3028 19.5367 14.6955C19.1858 14.0881 19.0011 13.399 19.0011 12.6975C19.0011 11.996 19.1858 11.307 19.5367 10.6996C19.8876 10.0922 20.3923 9.58791 21 9.23751V6.69751H5ZM10.5 8.69751C11.33 8.69751 12 9.36751 12 10.1975C12 11.0275 11.33 11.6975 10.5 11.6975C9.67 11.6975 9 11.0275 9 10.1975C9 9.36751 9.67 8.69751 10.5 8.69751ZM15.5 13.6975C16.33 13.6975 17 14.3675 17 15.1975C17 16.0275 16.33 16.6975 15.5 16.6975C14.67 16.6975 14 16.0275 14 15.1975C14 14.3675 14.67 13.6975 15.5 13.6975Z" fill="#202423"/>
</svg>
