<svg width="20" height="19" viewBox="0 0 20 19" fill="none" xmlns="http://www.w3.org/2000/svg">
<path d="M1.02123 17.8305L0.924304 17.8551C0.898311 17.7526 0.893104 17.646 0.90899 17.5415C0.92481 17.4374 0.961226 17.3375 1.0161 17.2477C1.01634 17.2473 1.01657 17.247 1.0168 17.2466L1.10205 17.2989C2.39561 15.0617 4.37674 13.4469 6.69131 12.658L1.02123 17.8305ZM1.02123 17.8305L0.924304 17.8551C0.950297 17.9576 0.99655 18.0538 1.06034 18.1381C1.12412 18.2224 1.20414 18.2931 1.29568 18.346C1.38722 18.3988 1.48843 18.4328 1.59332 18.446C1.69822 18.4591 1.80468 18.4511 1.90643 18.4224C2.00818 18.3937 2.10315 18.3449 2.18575 18.279C2.26797 18.2133 2.33627 18.1319 2.38665 18.0395C3.99812 15.2554 6.84414 13.5948 10 13.5948C13.1559 13.5948 16.0019 15.2554 17.6134 18.0395C17.6637 18.1319 17.732 18.2133 17.8143 18.279C17.8968 18.3449 17.9918 18.3937 18.0936 18.4224C18.1953 18.4511 18.3018 18.4591 18.4067 18.446C18.5116 18.4328 18.6128 18.3988 18.7043 18.346C18.7959 18.2931 18.8759 18.2224 18.9397 18.1381C19.0035 18.0538 19.0497 17.9576 19.0757 17.8551C19.1017 17.7526 19.1069 17.646 19.091 17.5415C19.0752 17.4374 19.0388 17.3375 18.9839 17.2477C17.6926 15.0159 15.722 13.3966 13.4173 12.5898C14.5197 11.882 15.3768 10.848 15.8673 9.62943C16.3845 8.34455 16.4656 6.92542 16.0982 5.58998C15.7308 4.25454 14.9351 3.07662 13.8335 2.23712C12.7318 1.39763 11.3851 0.942969 10 0.942969C8.61494 0.942969 7.26817 1.39763 6.16651 2.23712C5.06486 3.07662 4.26923 4.25454 3.90182 5.58998C3.53441 6.92542 3.61553 8.34455 4.13272 9.62943C4.62322 10.848 5.48022 11.8819 6.5826 12.5898L1.02123 17.8305ZM5.25852 7.26998C5.25854 6.33224 5.53662 5.41556 6.0576 4.63586C6.5786 3.85612 7.31912 3.2484 8.18551 2.88952C9.05191 2.53065 10.0053 2.43676 10.925 2.61971C11.8448 2.80266 12.6896 3.25424 13.3527 3.91735C14.0158 4.58046 14.4674 5.42531 14.6504 6.34507C14.8333 7.26482 14.7394 8.21818 14.3806 9.08457C14.0217 9.95096 13.414 10.6915 12.6342 11.2125C11.8545 11.7335 10.9378 12.0115 10.0001 12.0116C8.74297 12.0102 7.53771 11.5102 6.64878 10.6213C5.75985 9.73237 5.25986 8.52711 5.25852 7.26998Z" fill="#202423" stroke="#202423" stroke-width="0.2"/>
</svg>
